<svg width="112" height="32" viewBox="0 0 112 32" fill="none" xmlns="http://www.w3.org/2000/svg">
<g clip-path="url(#clip0_180_2386)">
<path d="M32.106 22.6795C31.9303 22.2895 31.7656 21.8795 31.5899 21.5295L30.7773 19.8595L30.7444 19.8295C28.3287 15.0295 25.7483 10.1495 23.0142 5.34946L22.9044 5.14946C22.6299 4.67946 22.3554 4.15946 22.0699 3.67946C21.7185 3.10946 21.3781 2.49946 20.8181 1.91946C20.2723 1.31259 19.5853 0.823645 18.8068 0.487911C18.0282 0.152178 17.1776 -0.0219727 16.3162 -0.0219727C15.4548 -0.0219727 14.6041 0.152178 13.8256 0.487911C13.0471 0.823645 12.3601 1.31259 11.8142 1.91946C11.2981 2.49946 10.9138 3.10946 10.5624 3.67946C10.2879 4.19946 10.0134 4.70946 9.72793 5.17946L9.61813 5.37946C6.92793 10.1795 4.30362 15.0595 1.88793 19.8595L1.82205 19.9195C1.58048 20.4395 1.29499 20.9795 1.02048 21.5595C0.844794 21.9095 0.669108 22.2895 0.493422 22.7095C0.0191044 23.8092 -0.13236 25.0026 0.0539558 26.1719C0.240272 27.3413 0.757937 28.4462 1.55593 29.3779C2.35393 30.3095 3.40471 31.0357 4.60473 31.4849C5.80474 31.9341 7.11256 32.0908 8.3993 31.9395C9.63292 31.7916 10.8208 31.4174 11.8911 30.8395C13.3185 30.1095 14.6911 29.0495 16.2283 27.5195C17.7656 29.0495 19.1711 30.1095 20.5656 30.8495C21.9066 31.5663 23.4253 31.962 24.9797 31.9995C26.7798 32.0063 28.5218 31.4197 29.8841 30.3482C31.2464 29.2766 32.137 27.7924 32.3915 26.1695C32.6856 25.0032 32.5861 23.7833 32.106 22.6695V22.6795ZM16.3381 24.3395C14.4495 22.1395 13.2197 20.1195 12.8024 18.3895C12.6296 17.7484 12.5923 17.0832 12.6926 16.4295C12.7695 15.9195 12.9781 15.4695 13.2636 15.0895C13.9224 14.2195 15.0754 13.6795 16.3381 13.6795C16.9378 13.6628 17.5326 13.782 18.0693 14.0263C18.6059 14.2707 19.0675 14.6325 19.4126 15.0795C19.6981 15.4795 19.9068 15.9195 19.9726 16.4295C20.0824 17.0095 20.0385 17.6795 19.8628 18.3895C19.4456 20.0895 18.2158 22.1295 16.3381 24.3395ZM30.3271 25.8195C30.2024 26.6434 29.8427 27.4232 29.284 28.0811C28.7253 28.7391 27.9871 29.2522 27.1428 29.5695C26.3083 29.8895 25.386 29.9795 24.4856 29.8895C23.6071 29.7895 22.7287 29.5295 21.8283 29.0495C20.3333 28.208 18.9891 27.1624 17.8424 25.9495C20.1483 23.3495 21.5428 20.9795 22.0699 18.8695C22.3224 17.8695 22.3554 16.9695 22.2456 16.1395C22.1085 15.3527 21.7863 14.6023 21.3013 13.9395C20.7474 13.2207 20.0081 12.6369 19.1485 12.2393C18.2888 11.8418 17.335 11.6426 16.3711 11.6595C14.3397 11.6595 12.5279 12.5195 11.4299 13.9295C10.9356 14.5906 10.6161 15.347 10.4966 16.1395C10.3538 16.9795 10.3868 17.9095 10.6722 18.8695C11.1993 20.9795 12.6268 23.3795 14.8997 25.9695C13.7725 27.2056 12.4251 28.2603 10.9138 29.0895C10.0024 29.5695 9.13499 29.8195 8.25656 29.9195C6.89047 30.0788 5.51053 29.7407 4.41667 28.9786C3.32282 28.2164 2.60347 27.0919 2.41499 25.8495C2.30519 25.0495 2.38205 24.2495 2.73342 23.3495C2.84323 23.0295 3.00793 22.7095 3.18362 22.3295C3.42519 21.8095 3.71068 21.2695 3.98519 20.7295L4.02911 20.6595C6.40087 15.8895 8.99224 11.0195 11.6824 6.24946L11.7922 6.04946C12.0668 5.56946 12.3413 5.05946 12.6268 4.57946C12.9122 4.06946 13.2197 3.57946 13.615 3.17946C13.9572 2.80748 14.3847 2.50833 14.8675 2.30307C15.3503 2.09782 15.8767 1.99144 16.4095 1.99144C16.9423 1.99144 17.4687 2.09782 17.9515 2.30307C18.4343 2.50833 18.8618 2.80748 19.204 3.17946C19.5883 3.57946 19.9068 4.06946 20.1922 4.57946C20.4668 5.05946 20.7413 5.57946 21.0268 6.04946L21.1366 6.24946C23.8158 11.0195 26.4071 15.8895 28.8228 20.6595L28.8558 20.6895C29.1413 21.2095 29.3828 21.7895 29.6573 22.2895C29.833 22.6795 30.0087 22.9895 30.1185 23.3195C30.3271 24.2195 30.437 25.0195 30.3271 25.8195ZM45.6119 24.1195C44.7844 24.1305 43.9649 23.9717 43.2141 23.6549C42.4632 23.3381 41.8004 22.8714 41.2746 22.2895C40.0932 21.0494 39.4662 19.4505 39.5177 17.8095C39.4997 16.1327 40.1469 14.5063 41.3405 13.2295C41.8926 12.6401 42.5798 12.1681 43.3539 11.8467C44.1279 11.5254 44.9698 11.3625 45.8205 11.3695C46.6209 11.3495 47.4137 11.5153 48.1244 11.8511C48.8351 12.187 49.4403 12.682 49.8832 13.2895L49.993 11.7195H53.1993V23.7995H49.982L49.8722 22.0395C49.4156 22.6881 48.7845 23.2197 48.0389 23.5838C47.2932 23.9478 46.4578 24.1322 45.6119 24.1195ZM46.4464 21.2395C47.0832 21.2395 47.6432 21.0795 48.1703 20.7895C48.6534 20.4695 49.0487 20.0495 49.3562 19.5395C49.6307 19.0295 49.7734 18.4195 49.7734 17.7395C49.8162 17.1489 49.69 16.5582 49.4071 16.0254C49.1241 15.4925 48.6942 15.0357 48.1593 14.6995C47.6453 14.4078 47.0519 14.2532 46.4464 14.2532C45.8408 14.2532 45.2474 14.4078 44.7334 14.6995C44.2503 15.0195 43.855 15.4395 43.5475 15.9495C43.2572 16.5119 43.1143 17.1281 43.1303 17.7495C43.0875 18.3401 43.2137 18.9307 43.4966 19.4635C43.7796 19.9964 44.2095 20.4533 44.7444 20.7895C45.2605 21.0795 45.8205 21.2395 46.4464 21.2395ZM58.6895 8.45946C58.6895 8.80946 58.6236 9.12946 58.4479 9.38946C58.2722 9.63946 58.0307 9.86946 57.7122 10.0295C57.3938 10.1895 57.0534 10.2495 56.702 10.2495C56.3507 10.2495 55.9993 10.1895 55.6809 10.0295C55.3797 9.87677 55.1265 9.65645 54.9452 9.38946C54.7751 9.10459 54.6917 8.78352 54.7036 8.45946C54.7036 8.09946 54.7805 7.77946 54.9452 7.52946C55.1209 7.22946 55.3734 7.04946 55.6809 6.88946C55.9993 6.72946 56.3397 6.65946 56.702 6.65946C57.0516 6.65212 57.3972 6.72751 57.7051 6.87825C58.0131 7.02899 58.2728 7.24993 58.4589 7.51946C58.6187 7.811 58.6979 8.13369 58.6895 8.45946ZM54.9562 23.7595V11.6995H58.4479V23.7795H54.9452L54.9562 23.7595ZM67.7813 14.8595V14.8995C67.6166 14.8295 67.3969 14.7995 67.2322 14.7695C67.0126 14.7295 66.8369 14.7295 66.6283 14.7295C65.6511 14.7295 64.9154 14.9895 64.4322 15.5295C63.9052 16.0795 63.6636 16.8495 63.6636 17.8395V23.7695H60.1609V11.6895H63.3781L63.4879 13.5195C63.8393 12.8795 64.2566 12.3995 64.8495 12.0395C65.4393 11.6897 66.1336 11.515 66.8369 11.5395C67.0895 11.5395 67.3311 11.5595 67.5397 11.5995C67.6495 11.6295 67.7154 11.6295 67.7813 11.6595V14.8595ZM69.1867 23.7595V6.73946H72.6785V13.2395C73.1726 12.6595 73.7326 12.2095 74.4354 11.8595C75.5479 11.3627 76.8118 11.2218 78.023 11.4595C79.2343 11.6971 80.3223 12.2995 81.1115 13.1695C82.2955 14.4121 82.9227 16.015 82.8683 17.6595C82.8864 19.3362 82.2391 20.9626 81.0456 22.2395C80.4935 22.8288 79.8062 23.3008 79.0322 23.6222C78.2582 23.9435 77.4162 24.1065 76.5656 24.0995C75.7652 24.1194 74.9724 23.9537 74.2617 23.6178C73.5509 23.2819 72.9457 22.787 72.5028 22.1795L72.393 23.7495L69.1867 23.7795V23.7595ZM75.9397 21.2395C76.5656 21.2395 77.1256 21.0795 77.6526 20.7895C78.1358 20.4695 78.5311 20.0495 78.8385 19.5395C79.124 19.0295 79.2558 18.4195 79.2558 17.7395C79.2558 17.0695 79.124 16.4595 78.8385 15.9495C78.5502 15.4577 78.145 15.0307 77.6526 14.6995C77.1387 14.4078 76.5452 14.2532 75.9397 14.2532C75.3341 14.2532 74.7407 14.4078 74.2268 14.6995C73.7326 15.0195 73.3483 15.4395 73.0299 15.9495C72.7395 16.5119 72.5967 17.1281 72.6126 17.7495C72.5698 18.3401 72.6961 18.9307 72.979 19.4635C73.2619 19.9964 73.6919 20.4533 74.2268 20.7895C74.7428 21.0795 75.3028 21.2395 75.9397 21.2395ZM84.186 23.7695V11.6895H87.4032L87.513 13.2595C87.9173 12.6576 88.4908 12.1651 89.1742 11.8328C89.8576 11.5006 90.626 11.3406 91.4001 11.3695C92.2852 11.3555 93.1552 11.5796 93.9013 12.0136C94.6473 12.4476 95.2363 13.0722 95.5946 13.8095C95.9789 14.5695 96.1875 15.5095 96.1875 16.5595V23.7995H92.6848V16.9795C92.6848 16.1395 92.4762 15.4795 92.0589 14.9895C91.6416 14.5095 91.0707 14.2495 90.346 14.2495C89.8189 14.2495 89.3577 14.3495 88.9515 14.5695C88.5671 14.7995 88.2487 15.0895 88.0071 15.4995C87.7629 15.9139 87.6418 16.3793 87.6558 16.8495V23.7695H84.186ZM97.9334 23.7695V6.72946H101.436V13.2295C101.911 12.6462 102.528 12.1717 103.239 11.8437C103.95 11.5156 104.735 11.3429 105.532 11.3395C106.359 11.3284 107.179 11.4872 107.93 11.804C108.68 12.1208 109.343 12.5875 109.869 13.1695C111.045 14.412 111.667 16.01 111.615 17.6495C111.634 19.3264 110.987 20.9531 109.792 22.2295C109.24 22.8188 108.553 23.2908 107.779 23.6122C107.005 23.9335 106.163 24.0965 105.312 24.0895C104.512 24.1094 103.719 23.9437 103.008 23.6078C102.298 23.2719 101.692 22.777 101.249 22.1695L101.151 23.7395L97.9334 23.7695ZM104.719 21.2395C105.356 21.2395 105.916 21.0795 106.432 20.7895C106.926 20.4695 107.311 20.0495 107.629 19.5395C107.904 19.0295 108.046 18.4195 108.046 17.7395C108.089 17.1489 107.963 16.5582 107.68 16.0254C107.397 15.4925 106.967 15.0357 106.432 14.6995C105.918 14.4078 105.325 14.2532 104.719 14.2532C104.114 14.2532 103.52 14.4078 103.006 14.6995C102.523 15.0195 102.128 15.4395 101.82 15.9495C101.514 16.5069 101.37 17.1268 101.403 17.7495C101.36 18.3401 101.487 18.9307 101.77 19.4635C102.053 19.9964 102.482 20.4533 103.017 20.7895C103.533 21.0795 104.06 21.2395 104.719 21.2395Z" fill="#FF385C"/>
</g>
<defs>
<clipPath id="clip0_180_2386">
<rect width="112" height="32" fill="white"/>
</clipPath>
</defs>
</svg>
