<svg width="112" height="32" viewBox="0 0 112 32" fill="none" xmlns="http://www.w3.org/2000/svg">
<g clip-path="url(#clip0_180_2372)">
<path fill-rule="evenodd" clip-rule="evenodd" d="M24.4509 4.87939H8.23633V13.796H16.2147C16.4989 13.796 16.7295 14.0489 16.7295 14.3607V22.9904H24.9657V5.44507C24.9659 5.37083 24.9526 5.2973 24.9268 5.22867C24.901 5.16005 24.8631 5.09768 24.8153 5.04514C24.7675 4.9926 24.7107 4.95091 24.6481 4.92247C24.5856 4.89403 24.5186 4.87939 24.4509 4.87939Z" fill="#8E75FF"/>
<path opacity="0.405" fill-rule="evenodd" clip-rule="evenodd" d="M8.23511 4.87939V13.796H0.628519C0.577411 13.7959 0.527483 13.7792 0.485072 13.7479C0.442661 13.7166 0.409681 13.6722 0.390318 13.6204C0.370955 13.5685 0.366083 13.5115 0.37632 13.4565C0.386556 13.4016 0.411441 13.3513 0.447813 13.3119L8.23511 4.87939ZM17.1678 31.4322C17.1316 31.4712 17.0857 31.4976 17.0358 31.5081C16.986 31.5187 16.9344 31.5128 16.8876 31.4913C16.8407 31.4698 16.8007 31.4336 16.7726 31.3873C16.7444 31.341 16.7293 31.2866 16.7292 31.2309V22.9904H24.9655L17.1678 31.4311V31.4322Z" fill="#8E75FF"/>
<path opacity="0.405" d="M8.23535 13.7961H16.4725C16.6137 13.7961 16.7295 13.9221 16.7295 14.0779V22.9905H8.75112C8.61458 22.9905 8.48363 22.931 8.38708 22.8251C8.29053 22.7192 8.23629 22.5756 8.23629 22.4258V13.7961H8.23535Z" fill="#8E75FF"/>
<path fill-rule="evenodd" clip-rule="evenodd" d="M108.019 4.31713C108.48 4.81674 109.023 5.06552 109.649 5.06552C110.296 5.06552 110.849 4.81674 111.31 4.31713C111.77 3.81752 112 3.22913 112 2.54887C112 1.86965 111.77 1.27507 111.31 0.765131C111.096 0.519237 110.838 0.324389 110.552 0.192775C110.267 0.0611606 109.959 -0.00438823 109.649 0.000227918C109.023 0.000227918 108.48 0.255196 108.019 0.764099C107.559 1.27507 107.329 1.86862 107.329 2.54991C107.329 3.22913 107.559 3.81752 108.019 4.31713ZM58.0805 10.8327C58.0805 10.8844 58.041 10.9277 57.993 10.9277H54.76V17.5548C54.76 18.1071 54.888 18.5107 55.1421 18.7656C55.3963 19.0206 55.769 19.1631 56.2584 19.1951C56.7064 19.225 57.2523 19.2229 57.897 19.1899L57.9883 19.1847C58 19.184 58.0118 19.186 58.0228 19.1904C58.0339 19.1949 58.044 19.2018 58.0526 19.2107C58.0611 19.2196 58.0679 19.2303 58.0725 19.2421C58.0772 19.254 58.0796 19.2668 58.0796 19.2797V22.8214C58.0797 22.8449 58.0719 22.8676 58.0576 22.8851C58.0434 22.9027 58.0237 22.9138 58.0024 22.9164L57.9431 22.9236C55.4113 23.2157 53.6203 22.9442 52.5718 22.1102C51.5045 21.2606 50.9718 19.7422 50.9718 17.5548V10.9277H48.5021C48.4792 10.9277 48.4572 10.9177 48.4409 10.8999C48.4247 10.8821 48.4156 10.8579 48.4156 10.8327V7.07223C48.4156 7.02062 48.4541 6.97726 48.5021 6.97726H50.9708V4.3481C50.9708 4.27171 51.0123 4.20358 51.0753 4.17262L54.6386 2.47249C54.6518 2.46592 54.6663 2.46309 54.6808 2.46427C54.6952 2.46544 54.7092 2.47058 54.7214 2.47921C54.7335 2.48784 54.7436 2.49969 54.7505 2.51366C54.7574 2.52764 54.761 2.54329 54.761 2.5592V6.97726H57.993C58.04 6.97726 58.0796 7.01958 58.0796 7.07223V10.8327H58.0805ZM64.9511 9.71791C65.3031 8.69804 65.8857 7.93313 66.6979 7.4232C67.4992 6.92282 68.4054 6.65958 69.3276 6.65933C69.3756 6.65933 69.4151 6.70165 69.4151 6.75533V11.0753C69.415 11.0969 69.4109 11.1183 69.4029 11.1381C69.3949 11.1578 69.3831 11.1755 69.3685 11.19C69.3539 11.2045 69.3367 11.2154 69.3179 11.2222C69.2992 11.2289 69.2794 11.2313 69.2598 11.2291C68.1671 11.1218 67.1854 11.3829 66.3158 12.0116C65.4057 12.6691 64.9511 13.7633 64.9511 15.2931V22.8121C64.9511 22.8247 64.9488 22.8371 64.9444 22.8487C64.94 22.8603 64.9335 22.8708 64.9254 22.8796C64.9173 22.8885 64.9076 22.8954 64.897 22.9001C64.8864 22.9049 64.875 22.9072 64.8636 22.9071H61.2475C61.2246 22.9071 61.2026 22.8971 61.1863 22.8793C61.1701 22.8614 61.161 22.8373 61.161 22.8121V7.0712C61.161 7.01958 61.1996 6.97623 61.2475 6.97623H64.8636C64.9106 6.97623 64.9501 7.01855 64.9501 7.0712V9.71584L64.9511 9.71791ZM82.8673 6.97726C82.8559 6.97712 82.8445 6.97948 82.8339 6.98419C82.8233 6.9889 82.8136 6.99588 82.8055 7.00471C82.7973 7.01354 82.7909 7.02406 82.7865 7.03565C82.7821 7.04724 82.7798 7.05967 82.7798 7.07223V8.85804C81.6447 7.30655 80.0485 6.53133 77.992 6.53133C76.0344 6.53133 74.3544 7.34371 72.9548 8.96849C71.5544 10.5933 70.8541 12.5845 70.8541 14.9422C70.8541 17.2998 71.5544 19.2911 72.9548 20.9158C74.3544 22.5406 76.0344 23.353 77.992 23.353C80.0485 23.353 81.6438 22.5778 82.7798 21.0273V22.8121C82.7798 22.8637 82.8193 22.9071 82.8673 22.9071H86.4824C86.5304 22.9071 86.5699 22.8647 86.5699 22.8121V7.0712C86.5699 7.05864 86.5676 7.0462 86.5632 7.03461C86.5588 7.02302 86.5524 7.01251 86.5442 7.00368C86.5361 6.99484 86.5264 6.98787 86.5158 6.98316C86.5052 6.97845 86.4938 6.97609 86.4824 6.97623H82.8673V6.97726ZM75.7897 18.1917C76.553 19.0206 77.5214 19.4346 78.6979 19.4346C79.8725 19.4346 80.8466 19.0144 81.6203 18.1752C82.3939 17.337 82.7798 16.2593 82.7798 14.9422C82.7798 13.625 82.3939 12.5473 81.6203 11.7081C80.8466 10.8699 79.8725 10.4498 78.697 10.4498C77.5224 10.4498 76.553 10.8699 75.7887 11.7091C75.0264 12.5473 74.6433 13.625 74.6433 14.9422C74.6433 16.2593 75.0254 17.3422 75.7897 18.1917ZM103.413 8.96849C102.013 7.34371 100.323 6.53133 98.3459 6.53133C96.2894 6.53133 94.7035 7.30655 93.5873 8.857V7.07223C93.5873 7.04704 93.5782 7.02289 93.562 7.00508C93.5457 6.98727 93.5237 6.97726 93.5007 6.97726H89.8847C89.8618 6.97726 89.8397 6.98727 89.8235 7.00508C89.8073 7.02289 89.7981 7.04704 89.7981 7.07223V29.1832C89.7981 29.2358 89.8367 29.2792 89.8847 29.2792H93.5007C93.5478 29.2792 93.5873 29.2358 93.5873 29.1832V21.0273C94.7035 22.5778 96.2894 23.353 98.3459 23.353C100.323 23.353 102.013 22.5406 103.413 20.9158C104.813 19.2911 105.513 17.2998 105.513 14.9422C105.513 12.5845 104.813 10.5933 103.413 8.96849ZM94.7327 18.1917C95.497 19.0206 96.4654 19.4346 97.641 19.4346C98.8156 19.4346 99.7897 19.0144 100.563 18.1752C101.337 17.337 101.724 16.2593 101.724 14.9422C101.724 13.625 101.337 12.5473 100.563 11.7081C99.7897 10.8699 98.8156 10.4498 97.641 10.4498C96.4654 10.4498 95.497 10.8699 94.7327 11.7091C93.9694 12.5473 93.5873 13.625 93.5873 14.9422C93.5873 16.2593 93.9694 17.3422 94.7327 18.1917ZM107.856 22.9071C107.834 22.9071 107.812 22.8971 107.795 22.8793C107.779 22.8614 107.77 22.8373 107.77 22.8121V7.0712C107.77 7.01958 107.808 6.97623 107.856 6.97623H111.472C111.521 6.97623 111.559 7.01855 111.559 7.0712V22.8131C111.559 22.8383 111.55 22.8625 111.534 22.8803C111.517 22.8981 111.495 22.9081 111.472 22.9081H107.856V22.9071ZM40.2941 12.537C39.7746 12.2717 39.5158 11.9259 39.5158 11.5016C39.5158 11.098 39.6767 10.7791 40.0005 10.5458C40.3233 10.3125 40.7299 10.1948 41.2193 10.1948C42.1577 10.1948 42.8664 10.5922 43.3464 11.386C43.3624 11.413 43.3865 11.4329 43.4145 11.4423C43.4426 11.4518 43.4728 11.4501 43.4998 11.4376L46.6979 9.90268C46.709 9.89724 46.7189 9.88932 46.7269 9.87942C46.735 9.86952 46.7411 9.85787 46.7449 9.84522C46.7486 9.83257 46.7499 9.81921 46.7486 9.80599C46.7473 9.79277 46.7435 9.77999 46.7374 9.76849C46.7006 9.70119 46.663 9.63443 46.6245 9.56823C46.0777 8.63404 45.369 7.93726 44.4796 7.40771C43.5007 6.82345 42.4137 6.53133 41.2193 6.53133C39.6325 6.53133 38.3064 6.98242 37.2381 7.88565C36.1718 8.78784 35.6381 10.0255 35.6381 11.5966C35.6381 12.6382 35.8979 13.5032 36.4165 14.1938C36.9177 14.8699 37.5706 15.3914 38.3111 15.7071C39.0546 16.025 39.7991 16.2913 40.5436 16.5029C41.2871 16.7156 41.9196 16.9551 42.4381 17.2204C42.9567 17.4856 43.2165 17.8304 43.2165 18.2557C43.2165 19.1693 42.5407 19.6255 41.1901 19.6255C39.9036 19.6255 39.0123 19.1094 38.5163 18.0792C38.4964 18.0358 38.4621 18.0023 38.4205 17.9856C38.3789 17.9689 38.333 17.9703 38.2923 17.9894L35.1036 19.5223C35.0929 19.5274 35.0833 19.5348 35.0754 19.5441C35.0674 19.5534 35.0612 19.5643 35.0572 19.5762C35.0531 19.5882 35.0513 19.6009 35.0518 19.6136C35.0524 19.6263 35.0552 19.6388 35.0603 19.6503L35.096 19.7298C36.2104 22.1453 38.2414 23.353 41.1901 23.353C42.8739 23.353 44.2791 22.9122 45.4047 22.0317C46.5313 21.1491 47.0941 19.8908 47.0941 18.2557C47.0941 17.1718 46.8344 16.2696 46.3158 15.5471C45.8269 14.8498 45.171 14.3152 44.4212 14.0028C43.6915 13.6997 42.946 13.4443 42.1887 13.2379C41.4443 13.0356 40.8127 12.8023 40.2941 12.536V12.537Z" fill="#1D1B84"/>
</g>
<defs>
<clipPath id="clip0_180_2372">
<rect width="112" height="32" fill="white"/>
</clipPath>
</defs>
</svg>
