<svg width="32" height="33" viewBox="0 0 32 33" fill="none" xmlns="http://www.w3.org/2000/svg">
<g id="Base feature icon" clip-path="url(#clip0_64_1231)">
<g id="Group">
<path id="Vector" d="M28 32.5H16C15.6464 32.5 15.3072 32.3595 15.0572 32.1095C14.8071 31.8594 14.6667 31.5203 14.6667 31.1667V28.5C14.6667 28.1464 14.8071 27.8073 15.0572 27.5572C15.3072 27.3072 15.6464 27.1667 16 27.1667H28C28.3536 27.1667 28.6928 27.3072 28.9428 27.5572C29.1928 27.8073 29.3333 28.1464 29.3333 28.5V31.1667C29.3333 31.5203 29.1928 31.8594 28.9428 32.1095C28.6928 32.3595 28.3536 32.5 28 32.5Z" fill="#C4B5FD"/>
<path id="Vector_2" d="M28 0.5H3.99999C3.64637 0.5 3.30723 0.640475 3.05718 0.890523C2.80713 1.14057 2.66666 1.47971 2.66666 1.83333V4.5C2.66666 4.85362 2.80713 5.19276 3.05718 5.44281C3.30723 5.69286 3.64637 5.83333 3.99999 5.83333H28C28.3536 5.83333 28.6928 5.69286 28.9428 5.44281C29.1929 5.19276 29.3333 4.85362 29.3333 4.5V1.83333C29.3333 1.47971 29.1929 1.14057 28.9428 0.890523C28.6928 0.640475 28.3536 0.5 28 0.5Z" fill="#1DB5BE"/>
<path id="Vector_3" d="M28 8.5H3.99999C3.64637 8.5 3.30723 8.64047 3.05718 8.89052C2.80713 9.14057 2.66666 9.47971 2.66666 9.83333V23.1667C2.66666 23.5203 2.80713 23.8594 3.05718 24.1095C3.30723 24.3595 3.64637 24.5 3.99999 24.5H28C28.3536 24.5 28.6928 24.3595 28.9428 24.1095C29.1929 23.8594 29.3333 23.5203 29.3333 23.1667V9.83333C29.3333 9.47971 29.1929 9.14057 28.9428 8.89052C28.6928 8.64047 28.3536 8.5 28 8.5Z" fill="#7C3AED"/>
</g>
</g>
<defs>
<clipPath id="clip0_64_1231">
<rect width="32" height="32" fill="white" transform="translate(0 0.5)"/>
</clipPath>
</defs>
</svg>
