<svg width="32" height="33" viewBox="0 0 32 33" fill="none" xmlns="http://www.w3.org/2000/svg">
<g id="Base feature icon">
<g id="Group">
<path id="Vector" d="M12 13.8333H2.66668C2.31305 13.8333 1.97392 13.6928 1.72387 13.4428C1.47382 13.1927 1.33334 12.8536 1.33334 12.5V3.16665C1.33334 2.81302 1.47382 2.47388 1.72387 2.22384C1.97392 1.97379 2.31305 1.83331 2.66668 1.83331H12C12.3536 1.83331 12.6928 1.97379 12.9428 2.22384C13.1929 2.47388 13.3333 2.81302 13.3333 3.16665V12.5C13.3333 12.8536 13.1929 13.1927 12.9428 13.4428C12.6928 13.6928 12.3536 13.8333 12 13.8333Z" fill="#7C3AED"/>
<path id="Vector_2" d="M12 31.1666H2.66668C2.31305 31.1666 1.97392 31.0262 1.72387 30.7761C1.47382 30.5261 1.33334 30.1869 1.33334 29.8333V20.5C1.33334 20.1463 1.47382 19.8072 1.72387 19.5571C1.97392 19.3071 2.31305 19.1666 2.66668 19.1666H12C12.3536 19.1666 12.6928 19.3071 12.9428 19.5571C13.1929 19.8072 13.3333 20.1463 13.3333 20.5V29.8333C13.3333 30.1869 13.1929 30.5261 12.9428 30.7761C12.6928 31.0262 12.3536 31.1666 12 31.1666Z" fill="#7C3AED"/>
<path id="Vector_3" d="M17.3333 3.16663H30.6667V5.83329H17.3333V3.16663Z" fill="#1DB5BE"/>
<path id="Vector_4" d="M30.6667 20.5H17.3333V23.1667H30.6667V20.5Z" fill="#1DB5BE"/>
<path id="Vector_5" d="M30.6667 27.1666H17.3333V29.8333H30.6667V27.1666Z" fill="#C4B5FD"/>
<path id="Vector_6" d="M30.6667 9.83331H17.3333V12.5H30.6667V9.83331Z" fill="#C4B5FD"/>
</g>
</g>
</svg>
