<svg width="32" height="33" viewBox="0 0 32 33" fill="none" xmlns="http://www.w3.org/2000/svg">
<g id="Base feature icon">
<g id="Group">
<path id="Vector" d="M6.66665 1.83331H2.66665C2.31302 1.83331 1.97388 1.97379 1.72384 2.22384C1.47379 2.47388 1.33331 2.81302 1.33331 3.16665V29.8333C1.33331 30.1869 1.47379 30.5261 1.72384 30.7761C1.97388 31.0262 2.31302 31.1666 2.66665 31.1666H6.66665V1.83331Z" fill="#C4B5FD"/>
<path id="Vector_2" d="M9.33331 31.1666H22.6666V1.83331H9.33331V31.1666ZM16 25.8333C15.6464 25.8333 15.3072 25.6928 15.0572 25.4428C14.8071 25.1927 14.6666 24.8536 14.6666 24.5C14.6666 24.1464 14.8071 23.8072 15.0572 23.5572C15.3072 23.3071 15.6464 23.1666 16 23.1666C16.3536 23.1666 16.6927 23.3071 16.9428 23.5572C17.1928 23.8072 17.3333 24.1464 17.3333 24.5C17.3333 24.8536 17.1928 25.1927 16.9428 25.4428C16.6927 25.6928 16.3536 25.8333 16 25.8333ZM16 7.16665C16.3536 7.16665 16.6927 7.30712 16.9428 7.55717C17.1928 7.80722 17.3333 8.14636 17.3333 8.49998C17.3333 8.8536 17.1928 9.19274 16.9428 9.44279C16.6927 9.69284 16.3536 9.83331 16 9.83331C15.6464 9.83331 15.3072 9.69284 15.0572 9.44279C14.8071 9.19274 14.6666 8.8536 14.6666 8.49998C14.6666 8.14636 14.8071 7.80722 15.0572 7.55717C15.3072 7.30712 15.6464 7.16665 16 7.16665ZM16 15.1666C16.3536 15.1666 16.6927 15.3071 16.9428 15.5572C17.1928 15.8072 17.3333 16.1464 17.3333 16.5C17.3333 16.8536 17.1928 17.1927 16.9428 17.4428C16.6927 17.6928 16.3536 17.8333 16 17.8333C15.6464 17.8333 15.3072 17.6928 15.0572 17.4428C14.8071 17.1927 14.6666 16.8536 14.6666 16.5C14.6666 16.1464 14.8071 15.8072 15.0572 15.5572C15.3072 15.3071 15.6464 15.1666 16 15.1666Z" fill="#7C3AED"/>
<path id="Vector_3" d="M29.3333 1.83331H25.3333V31.1666H29.3333C29.6869 31.1666 30.0261 31.0262 30.2761 30.7761C30.5262 30.5261 30.6666 30.1869 30.6666 29.8333V3.16665C30.6666 2.81302 30.5262 2.47388 30.2761 2.22384C30.0261 1.97379 29.6869 1.83331 29.3333 1.83331Z" fill="#1DB5BE"/>
</g>
</g>
</svg>
