<svg width="32" height="32" viewBox="0 0 32 32" fill="none" xmlns="http://www.w3.org/2000/svg">
<g id="Logo" clip-path="url(#clip0_90_1464)">
<path id="Rectangle 587" d="M0.657227 31.9999H11.5065C16.6511 31.9999 20.8216 27.8294 20.8216 22.6848H9.97229C4.82772 22.6848 0.657227 26.8553 0.657227 31.9999Z" fill="#F22BB2"/>
<path id="Rectangle 591" d="M1.14258 9.31507V23.0137C6.28715 23.0137 10.4576 18.8432 10.4576 13.6986V0C5.31308 0 1.14258 4.1705 1.14258 9.31507Z" fill="#8C30F5"/>
<path id="Rectangle 587_2" d="M31.3421 0H20.4928C15.3482 0 11.1777 4.1705 11.1777 9.31507H22.0271C27.1716 9.31507 31.3421 5.14457 31.3421 0Z" fill="#FE9A22"/>
<path id="Rectangle 591_2" d="M31.3424 22.1371V8.43848C26.1978 8.43848 22.0273 12.609 22.0273 17.7535V31.4522C27.1719 31.4522 31.3424 27.2817 31.3424 22.1371Z" fill="#2EC5CE"/>
</g>
<defs>
<clipPath id="clip0_90_1464">
<rect width="32" height="32" fill="white"/>
</clipPath>
</defs>
</svg>
